HIERARCHY
ROOT Hips
{
	OFFSET 0.00 0.00 0.00
	CHANNELS 6 Xposition Yposition Zposition Xrotation Yrotation Zrotation
	JOINT Spine
	{
		OFFSET 0.00000 3.24121 0.00000
		CHANNELS 3 Xrotation Yrotation Zrotation
		JOINT Head
		{
			OFFSET 0.00000 18.38296 0.00000
			CHANNELS 3 Xrotation Yrotation Zrotation
			End Site
			{
				OFFSET 0.00000 4.52755 0.00000
			}
		}
		JOINT LeftShoulder
		{
			OFFSET 0.00000 12.82826 0.00000
			CHANNELS 3 Xrotation Yrotation Zrotation
			JOINT LeftArm
			{
				OFFSET 7.74805 0.00000 0.00000
				CHANNELS 3 Xrotation Yrotation Zrotation
				JOINT LeftForeArm
				{
					OFFSET 10.63561 0.00000 0.00000
					CHANNELS 3 Yrotation Zrotation Xrotation
					JOINT LeftHand
					{
						OFFSET 8.34675 0.00000 0.00000
						CHANNELS 3 Xrotation Yrotation Zrotation
						JOINT LeftHandThumb1
						{
							OFFSET 0.00000 0.00000 0.00000
							CHANNELS 3 Xrotation Zrotation Yrotation
							End Site
							{
								OFFSET 0.00000 0.00000 3.93700
							}
						}
						End Site
						{
							OFFSET 3.93700 0.00000 0.00000
						}
					}
				}
			}
		}
		JOINT RightShoulder
		{
			OFFSET 0.00000 12.82826 0.00000
			CHANNELS 3 Xrotation Yrotation Zrotation
			JOINT RightArm
			{
				OFFSET -7.74805 0.00000 0.00000
				CHANNELS 3 Xrotation Yrotation Zrotation
				JOINT RightForeArm
				{
					OFFSET -10.63561 0.00000 0.00000
					CHANNELS 3 Yrotation Zrotation Xrotation
					JOINT RightHand
					{
						OFFSET -8.34675 0.00000 0.00000
						CHANNELS 3 Xrotation Yrotation Zrotation
						JOINT RightHandThumb1
						{
							OFFSET 0.00000 0.00000 0.00000
							CHANNELS 3 Xrotation Zrotation Yrotation
							End Site
							{
								OFFSET 0.00000 0.00000 3.93700
							}
						}
						End Site
						{
							OFFSET -3.93700 0.00000 0.00000
						}
					}
				}
			}
		}
	}
	JOINT LeftUpLeg
	{
		OFFSET 3.43402 0.00000 0.00000
		CHANNELS 3 Xrotation Yrotation Zrotation
		JOINT LeftLeg
		{
			OFFSET 0.00000 -15.71302 0.00000
			CHANNELS 3 Xrotation Yrotation Zrotation
			JOINT LeftFoot
			{
				OFFSET 0.00000 -14.43512 0.00000
				CHANNELS 3 Xrotation Yrotation Zrotation
				JOINT LeftToeBase
				{
					OFFSET 0.00000 -1.27828 4.77061
					CHANNELS 3 Xrotation Yrotation Zrotation
					End Site
					{
						OFFSET 0.00000 0.00000 2.95275
					}
				}
			}
		}
	}
	JOINT RightUpLeg
	{
		OFFSET -3.43402 0.00000 0.00000
		CHANNELS 3 Xrotation Yrotation Zrotation
		JOINT RightLeg
		{
			OFFSET 0.00000 -15.71302 0.00000
			CHANNELS 3 Xrotation Yrotation Zrotation
			JOINT RightFoot
			{
				OFFSET 0.00000 -14.43512 0.00000
				CHANNELS 3 Xrotation Yrotation Zrotation
				JOINT RightToeBase
				{
					OFFSET 0.00000 -1.27828 4.77061
					CHANNELS 3 Xrotation Yrotation Zrotation
					End Site
					{
						OFFSET 0.00000 0.00000 2.95275
					}
				}
			}
		}
	}
}
MOTION
Frames: 15
Frame Time: 0.008333
 -0.8398 32.3618 -2.3391 34.5238 4.0014 -2.1255 -40.5948 -6.9182 0.0644 6.9537 -3.7651 -6.4706 32.7092 32.2395 19.9375 -58.7311 -2.8607 -32.7015 1.1320 0.0000 12.3167 -0.5449 26.8510 1.2063 33.1476 -0.0000 26.2537 31.3308 -32.3873 -23.7024 -55.7965 7.2847 45.8876 -6.7159 -0.0000 -17.9837 -1.1409 11.8303 5.5482 32.8623 0.0000 -24.3270 -27.8248 -0.2805 0.8336 -0.0767 0.0000 0.0000 -7.0469 -1.1152 -0.3297 3.1267 0.0000 0.0000 -26.4469 -4.7560 1.8269 -2.6336 0.0000 -0.0000 -8.9782 -11.3987 10.6191 14.2254 0.0000 -0.0000
 -0.8574 32.3629 -2.3523 34.6342 3.9120 -2.1191 -40.6880 -6.8580 0.0224 6.9887 -3.8047 -6.3004 32.6689 32.2417 19.9767 -58.6512 -3.0091 -32.6588 1.1547 0.0000 12.2522 0.3766 25.4479 -0.8764 33.1476 -0.0000 26.2537 31.3832 -32.3285 -23.5870 -55.7414 7.3425 45.8062 -6.6731 -0.0000 -17.8841 -1.1423 11.1940 5.8643 32.8623 0.0000 -24.3270 -27.9726 -0.2187 0.8977 -0.0399 0.0000 -0.0000 -7.0789 -1.1049 -0.3877 3.1906 -0.0000 0.0000 -26.2830 -3.5509 1.8322 -3.3164 -0.0000 -0.0000 -8.5898 -12.3878 10.7699 14.3188 -0.0000 0.0000
 -0.8621 32.3630 -2.3578 34.6667 3.8998 -2.1164 -40.7183 -6.8736 -0.0065 7.0390 -3.8539 -6.2243 32.6604 32.2271 19.9503 -58.6254 -3.1341 -32.6227 1.1561 0.0000 12.5931 0.5002 25.1595 -1.1764 33.1476 -0.0000 26.2537 31.4260 -32.2957 -23.5250 -55.7417 7.3671 45.7351 -6.6637 -0.0000 -17.6975 -1.1909 10.6360 6.4261 32.8623 0.0000 -24.3270 -28.0236 -0.1926 0.9058 -0.0222 -0.0000 -0.0000 -7.0826 -1.1125 -0.4030 3.2023 0.0000 -0.0000 -26.3293 -3.4682 1.8346 -3.3184 0.0000 0.0000 -8.5383 -12.4374 10.7212 14.1271 0.0000 -0.0000
 -0.8656 32.3634 -2.3614 34.6800 3.8739 -2.1128 -40.7349 -6.8636 -0.0242 7.0961 -3.9098 -6.1366 32.6512 32.1910 19.9314 -58.5568 -3.2892 -32.5938 1.1388 0.0000 12.9381 0.5665 25.1763 -1.3315 33.1476 -0.0000 26.2537 31.4485 -32.2629 -23.4735 -55.7196 7.4128 45.6867 -6.7129 -0.0000 -17.6206 -1.2169 10.1335 6.8843 32.8623 0.0000 -24.3270 -28.0398 -0.1798 0.9194 -0.0268 0.0000 0.0000 -7.0817 -1.1031 -0.3891 3.1708 -0.0000 0.0000 -26.3718 -3.4632 1.8503 -3.2829 -0.0000 0.0000 -8.5560 -12.4414 10.7395 14.2349 0.0000 -0.0000
 -0.8695 32.3636 -2.3642 34.6902 3.8690 -2.1102 -40.7504 -6.8567 -0.0584 7.1622 -3.9788 -6.0420 32.6548 32.1857 19.9209 -58.5841 -3.4287 -32.6054 1.1485 0.0000 13.3119 0.6516 25.0613 -1.5379 33.1476 -0.0000 26.2537 31.4460 -32.2419 -23.4351 -55.7016 7.4195 45.6645 -6.7460 -0.0000 -17.5638 -1.2180 9.5654 7.2913 32.8623 0.0000 -24.3270 -28.0581 -0.1740 0.9256 -0.0206 0.0000 0.0000 -7.0747 -1.1065 -0.3986 3.1834 -0.0000 -0.0000 -26.3952 -3.4423 1.8575 -3.2724 -0.0000 -0.0000 -8.5543 -12.4410 10.6705 14.2724 0.0000 -0.0000
 -0.8737 32.3640 -2.3669 34.6931 3.8533 -2.1103 -40.7616 -6.8692 -0.0834 7.2392 -4.0227 -5.9473 32.6522 32.1681 19.8964 -58.5780 -3.5684 -32.5962 1.1358 0.0000 13.6973 0.6673 25.1756 -1.5683 33.1476 -0.0000 26.2537 31.4426 -32.1987 -23.4163 -55.7054 7.3925 45.6529 -6.7829 -0.0000 -17.4460 -1.2015 9.0537 7.5919 32.8623 0.0000 -24.3270 -28.0639 -0.1648 0.9397 -0.0240 -0.0000 -0.0000 -7.0687 -1.0950 -0.4015 3.1768 0.0000 -0.0000 -26.4101 -3.4157 1.8716 -3.2644 -0.0000 -0.0000 -8.5500 -12.4525 10.6803 14.3822 0.0000 -0.0000
 -0.8779 32.3642 -2.3692 34.6917 3.8549 -2.1147 -40.7642 -6.8831 -0.1120 7.2981 -4.0879 -5.8570 32.6710 32.1428 19.8409 -58.5967 -3.7267 -32.5627 1.1317 0.0000 14.1324 0.6190 25.3824 -1.4438 33.1476 -0.0000 26.2537 31.4319 -32.1772 -23.3965 -55.7138 7.3564 45.6549 -6.8293 -0.0000 -17.3133 -1.1978 8.5986 7.9611 32.8623 0.0000 -24.3270 -28.0720 -0.1506 0.9482 -0.0158 -0.0000 0.0000 -7.0741 -1.1032 -0.4136 3.2016 0.0000 -0.0000 -26.4136 -3.4216 1.8816 -3.2649 -0.0000 -0.0000 -8.5264 -12.4224 10.6437 14.4142 0.0000 -0.0000
 -0.8828 32.3640 -2.3711 34.6895 3.8510 -2.1200 -40.7756 -6.8954 -0.1440 7.3930 -4.1526 -5.7444 32.6839 32.1261 19.8147 -58.6071 -3.8667 -32.5453 1.1267 0.0000 14.5900 0.7134 25.2510 -1.6720 33.1476 -0.0000 26.2537 31.4428 -32.1415 -23.3686 -55.7226 7.3323 45.6578 -6.9155 -0.0000 -17.2592 -1.1941 8.2473 8.2676 32.8623 0.0000 -24.3270 -28.0691 -0.1546 0.9635 -0.0281 -0.0000 -0.0000 -7.0740 -1.0947 -0.4036 3.2036 0.0000 0.0000 -26.4195 -3.4090 1.8960 -3.2588 0.0000 -0.0000 -8.5338 -12.4243 10.6499 14.5478 -0.0000 -0.0000
 -0.8874 32.3642 -2.3723 34.6861 3.8533 -2.1223 -40.7802 -6.9025 -0.1791 7.4466 -4.2199 -5.6491 32.7041 32.1343 19.7777 -58.5873 -4.0571 -32.5542 1.1072 0.0000 14.8873 0.8271 25.1617 -1.9447 33.1476 -0.0000 26.2537 31.4899 -32.1346 -23.3081 -55.7406 7.3330 45.6437 -6.9590 -0.0000 -17.1033 -1.1683 7.6584 8.7004 32.8623 0.0000 -24.3270 -28.0726 -0.1476 0.9710 -0.0182 0.0000 0.0000 -7.0733 -1.1069 -0.3877 3.1963 0.0000 -0.0000 -26.4120 -3.4043 1.9073 -3.2754 -0.0000 -0.0000 -8.5042 -12.4192 10.6537 14.5982 -0.0000 -0.0000
 -0.8916 32.3639 -2.3725 34.6720 3.8692 -2.1270 -40.7762 -6.9297 -0.2159 7.5104 -4.2881 -5.5637 32.7284 32.1158 19.7084 -58.5353 -4.2503 -32.4974 1.0632 0.0000 15.2242 0.9032 25.2650 -2.1153 33.1476 -0.0000 26.2537 31.5066 -32.1129 -23.2791 -55.7251 7.3273 45.6388 -6.9777 -0.0000 -17.0068 -1.1372 7.0751 9.1553 32.8623 0.0000 -24.3270 -28.0562 -0.1656 0.9763 -0.0288 0.0000 0.0000 -7.0703 -1.0986 -0.3890 3.1966 -0.0000 -0.0000 -26.3906 -3.4356 1.9146 -3.2894 -0.0000 -0.0000 -8.5004 -12.3803 10.5885 14.7011 -0.0000 -0.0000
 -0.8965 32.3639 -2.3737 34.6614 3.8811 -2.1353 -40.7738 -6.9491 -0.2501 7.5724 -4.3610 -5.4660 32.7210 32.0986 19.6876 -58.4465 -4.4380 -32.4901 1.0152 0.0000 15.3678 0.9816 25.2113 -2.3035 33.1476 -0.0000 26.2537 31.5331 -32.0968 -23.2388 -55.7051 7.3281 45.6327 -7.0028 -0.0000 -16.8561 -1.1059 6.6004 9.5334 32.8623 0.0000 -24.3270 -28.0459 -0.1877 0.9861 -0.0360 -0.0000 -0.0000 -7.0610 -1.0864 -0.3825 3.1997 0.0000 0.0000 -26.3742 -3.4502 1.9270 -3.3021 -0.0000 -0.0000 -8.4773 -12.3582 10.5676 14.7582 0.0000 -0.0000
 -0.9013 32.3639 -2.3742 34.6509 3.8871 -2.1406 -40.7726 -6.9579 -0.2827 7.6313 -4.4291 -5.3668 32.7591 32.1039 19.6418 -58.4542 -4.6205 -32.4820 1.0251 0.0000 15.5685 1.1185 25.0180 -2.6432 33.1476 -0.0000 26.2537 31.5580 -32.0779 -23.1998 -55.6911 7.3201 45.6350 -7.0978 -0.0000 -16.7554 -1.0910 6.2424 9.9343 32.8623 0.0000 -24.3270 -28.0325 -0.1991 0.9967 -0.0464 -0.0000 0.0000 -7.0549 -1.0781 -0.3899 3.2027 -0.0000 0.0000 -26.3592 -3.4698 1.9388 -3.3105 0.0000 0.0000 -8.4748 -12.3359 10.5988 14.8285 -0.0000 0.0000
 -0.9059 32.3638 -2.3758 34.6407 3.8975 -2.1439 -40.7707 -6.9706 -0.3216 7.6912 -4.4972 -5.2663 32.7435 32.0779 19.6362 -58.4370 -4.7243 -32.4603 0.9877 0.0000 15.9295 1.1735 25.0378 -2.7711 33.1476 -0.0000 26.2537 31.5849 -32.0590 -23.1650 -55.7029 7.2750 45.6523 -7.1554 -0.0000 -16.6969 -1.0666 5.9024 10.2618 32.8623 0.0000 -24.3270 -28.0274 -0.2018 1.0025 -0.0463 -0.0000 -0.0000 -7.0463 -1.0824 -0.3812 3.1895 0.0000 0.0000 -26.3466 -3.4968 1.9481 -3.3202 0.0000 -0.0000 -8.4717 -12.3060 10.6174 14.9358 0.0000 -0.0000
 -0.9119 32.3627 -2.3755 34.5812 3.8974 -2.1525 -40.7144 -6.9847 -0.3451 7.7475 -4.5535 -5.1878 32.7305 32.0429 19.5979 -58.3854 -4.8866 -32.4170 0.9653 0.0000 16.1148 1.2906 24.9934 -3.0523 33.1476 -0.0000 26.2537 31.5936 -32.0465 -23.1444 -55.7384 7.1927 45.6991 -7.1932 -0.0000 -16.6258 -1.0309 5.6071 10.4356 32.8623 0.0000 -24.3270 -27.9629 -0.2153 1.0256 -0.0558 -0.0000 -0.0000 -7.0621 -1.0712 -0.3761 3.1844 0.0000 0.0000 -26.2781 -3.5103 1.9723 -3.3371 0.0000 0.0000 -8.4555 -12.2772 10.5990 14.9761 0.0000 -0.0000
 -0.9172 32.3624 -2.3753 34.5511 3.8961 -2.1478 -40.6924 -6.9849 -0.3868 7.7920 -4.6063 -5.0788 32.7061 32.0143 19.5852 -58.3707 -5.0226 -32.3888 0.9788 0.0000 16.3424 1.3092 25.0103 -3.0941 33.1476 -0.0000 26.2537 31.6133 -32.0292 -23.0981 -55.7984 7.0929 45.7289 -7.2282 -0.0000 -16.5416 -0.9869 5.2870 10.5890 32.8623 0.0000 -24.3270 -27.9306 -0.2044 1.0337 -0.0603 -0.0000 0.0000 -7.0567 -1.0757 -0.3851 3.1774 0.0000 0.0000 -26.2428 -3.5392 1.9834 -3.3481 0.0000 0.0000 -8.4519 -12.2323 10.5974 15.0793 -0.0000 -0.0000
